:SAMPLES-PER-SECOND 30
:FULLY-SPECIFIED
:DEGREES
159
root  34.84107791 36.53999088 -14.31781589 9.89200592 -2.746369362 5.105842113
lowerback  -7.466059685 -0.1060479581 -0.5422641039
upperback  -4.11427021 0.4929839969 -5.022284031
thorax  -0.02879160084 0.4508343339 -4.844299793
lowerneck  -3.946640015 -16.37689972 -10.8579998
upperneck  7.611949921 -22.36709785 11.81239986
head  5.473780155 -10.72739983 3.524319887
lclavicle  0 -4.497500157e-015 -2.743230041e-014
lhumerus  -47.4966011 29.95490074 60.53689957
lradius  0.01234011166 -6.507048965e-006 28.76189804
lwrist  4.824992743e-007 -3.790274832e-007 -30.99110031
lhand  -4.447260948e-031 -37.43909836 -10.81359959
lfingers  90 7.125020027 -90
lthumb  95.0998741 -25.62695715 101.658951
rclavicle  0 -4.497500157e-015 -2.743230041e-014
rhumerus  35.98590088 -46.06430054 -30.77700043
rradius  -5.16745672e-007 2.214343908e-008 39.39390182
rwrist  -2.867388866e-005 0.07300342619 -165.0690002
rhand  -1.773965891e-031 5.579090118 -7.313809872
rfingers  -90 -7.125020027 -90
rthumb  -84.68064988 -8.797626782 -58.66831746
rfemur  -12.12974262 14.23533916 11.65207577
rtibia  -1.531772375 -1.987819076 20.14986229
rfoot  0.5226524472 -21.99219894 -35.99417496
rtoes  3.971677195 19.61752419 -101.6839199
lfemur  -4.366491318 -17.88044357 -23.88834763
ltibia  6.810223579 -0.885613203 7.498289108
lfoot  0.8826040626 -20.98149109 36.12419891
ltoes  -8.634978259 -18.10912451 -116.0386206
160
root  34.84322255 36.53811658 -14.32044112 9.88658905 -2.739319324 5.146905899
lowerback  -7.468960285 -0.1009180322 -0.5111207962
upperback  -4.105229855 0.4969989955 -5.019320965
thorax  -0.01739720069 0.4514369965 -4.863659859
lowerneck  -3.971630096 -16.37070084 -10.85340023
upperneck  7.649300098 -22.35920143 11.79909992
head  5.486470222 -10.72210026 3.517580032
lclavicle  0 -4.497500157e-015 -2.743230041e-014
lhumerus  -47.45220184 29.9272995 60.55360031
lradius  0.01250067167 -6.507048965e-006 28.73250008
lwrist  4.824992743e-007 -3.790274832e-007 -30.96290016
lhand  -4.445924607e-031 -37.41659927 -10.87290001
lfingers  90 7.125020027 -90
lthumb  95.10245953 -25.6857984 101.6404976
rclavicle  0 -4.497500157e-015 -2.743230041e-014
rhumerus  35.19129562 -45.55149841 -29.55319595
rradius  -5.16745672e-007 2.214343908e-008 39.04560089
rwrist  -2.867388866e-005 0.07238187641 -165.6029968
rhand  -1.773706876e-031 5.492770195 -7.206250191
rfingers  -90 -7.125020027 -90
rthumb  -84.64503357 -8.883896529 -58.74381349
rfemur  -12.13121891 14.20041084 11.61345196
rtibia  -1.555004001 -2.038060427 20.1715889
rfoot  0.4978421032 -22.05788994 -36.00521469
rtoes  3.945574259 19.62259141 -101.606182
lfemur  -4.426278114 -17.86614037 -23.90832138
ltibia  6.766080379 -0.8959679008 7.585084438
lfoot  0.8956290483 -21.0213871 36.09030151
ltoes  -8.64839335 -18.10288893 -116.081787
161
root  34.84767403 36.53793635 -14.32430538 9.89552784 -2.737479448 5.160764694
lowerback  -7.476659775 -0.09321680665 -0.5240492225
upperback  -4.099609852 0.5082330108 -5.01658535
thorax  -0.006437319797 0.4518696666 -4.854430199
lowerneck  -3.964829922 -16.37083435 -10.8380003
upperneck  7.650859833 -22.35883713 11.80130005
head  5.486594677 -10.72049522 3.516934156
lclavicle  0 -4.497500157e-015 -2.743230041e-014
lhumerus  -47.47409821 29.96159935 60.51689911
lradius  0.01265331823 -6.507048965e-006 28.73469925
lwrist  4.824992743e-007 -3.790274832e-007 -31.08910179
lhand  -4.448949928e-031 -37.46749878 -10.8416996
lfingers  90 7.125020027 -90
lthumb  95.11952536 -25.65331723 101.6919692
rclavicle  0 -4.497500157e-015 -2.743230041e-014
rhumerus  34.43930054 -45.04809952 -28.39620209
rradius  -5.16745672e-007 2.214343908e-008 38.63890076
rwrist  -2.867388866e-005 0.07175964117 -166.3890076
rhand  -1.773071127e-031 5.274819851 -7.382599831
rfingers  -90 -7.125020027 -90
rthumb  -84.78979798 -8.718670628 -58.97044486
rfemur  -12.15184212 14.15050793 11.59677219
rtibia  -1.565859318 -2.067579985 20.1871357
rfoot  0.4978562295 -22.1006031 -35.95385742
rtoes  3.962538615 19.61930219 -101.6567018
lfemur  -4.573788166 -17.8529377 -23.86818695
ltibia  6.673621655 -0.8696359992 7.792267323
lfoot  0.9331384897 -21.17888451 36.09917068
ltoes  -8.620005514 -18.11606981 -115.990459
162
root  34.85070777 36.53747078 -14.32579821 9.892225266 -2.737697124 5.186825275
lowerback  -7.463260174 -0.08773013204 -0.4957661629
upperback  -4.100309849 0.513158977 -5.014378548
thorax  -0.01446794346 0.4534479976 -4.877369881
lowerneck  -3.962379932 -16.37290001 -10.80350018
upperneck  7.641487122 -22.36365128 11.78844357
head  5.484871864 -10.71996403 3.515944242
lclavicle  0 -4.497500157e-015 -2.743230041e-014
lhumerus  -47.42810059 29.89660072 60.55989838
lradius  0.01279750559 -6.507048965e-006 28.71793938
lwrist  4.824992743e-007 -3.790274832e-007 -31.02449989
lhand  -4.452818444e-031 -37.53239822 -10.84309959
lfingers  90 7.125020027 -90
lthumb  95.1505054 -25.65221892 101.7615835
rclavicle  0 -4.497500157e-015 -2.743230041e-014
rhumerus  33.64519882 -44.50370407 -27.21339989
rradius  -5.16745672e-007 2.214343908e-008 38.28749847
rwrist  -2.867388866e-005 0.07113678008 -167.2550049
rhand  -1.772708501e-031 5.146309853 -7.215970039
rfingers  -90 -7.125020027 -90
rthumb  -84.73383526 -8.853072359 -59.08255118
rfemur  -12.17967987 14.08411026 11.57623482
rtibia  -1.585148215 -2.078330278 20.24053764
rfoot  0.4892565608 -22.10881424 -35.88677597
rtoes  3.958235528 19.62013791 -101.6438865
lfemur  -4.48692894 -17.88581848 -23.9344368
ltibia  6.72739172 -0.8883289099 7.659283161
lfoot  0.9196891785 -21.09840775 36.1135788
ltoes  -8.631130548 -18.11091076 -116.0262423
163
root  34.85353124 36.53809555 -14.32786176 9.90884304 -2.739225864 5.212586403
lowerback  -7.439349651 -0.07859033346 -0.4792841375
upperback  -4.095940113 0.5226809978 -5.010398388
thorax  -0.02190130018 0.4574519992 -4.890999794
lowerneck  -3.955579996 -16.37432861 -10.81700039
upperneck  7.658899784 -22.37619972 11.81429958
head  5.483488083 -10.72031403 3.514674187
lclavicle  0 -4.497500157e-015 -2.743230041e-014
lhumerus  -47.4151001 29.87789917 60.57749939
lradius  0.01293268893 -6.507048965e-006 28.7113018
lwrist  4.824992743e-007 -3.790274832e-007 -30.98810005
lhand  -0 -37.53929901 -10.82390022
lfingers  90 7.125020027 -90
lthumb  95.1494569 -25.63321165 101.7671459
rclavicle  0 -4.497500157e-015 -2.743230041e-014
rhumerus  32.89550018 -43.93430328 -26.06940079
rradius  -5.16745672e-007 2.214343908e-008 37.99150085
rwrist  -2.867388866e-005 0.0705133304 -168.1470032
rhand  -1.771676022e-031 4.761189938 -7.226799965
rfingers  -90 -7.125020027 -90
rthumb  -84.83123895 -8.819081271 -59.45895034
rfemur  -12.24517345 14.08838272 11.55364418
rtibia  -1.612160921 -2.064759493 20.32136917
rfoot  0.4665158689 -22.06532669 -35.86728287
rtoes  3.924052621 19.62674302 -101.5421023
lfemur  -4.508479118 -17.90828133 -23.96531105
ltibia  6.729899406 -0.9214215875 7.655042171
lfoot  0.9068666697 -21.02044678 36.09485245
ltoes  -8.671977748 -18.09189704 -116.1577106
164
root  34.85603933 36.53871131 -14.33155631 9.919646263 -2.741318226 5.228433609
lowerback  -7.442010403 -0.07174430788 -0.5009878278
upperback  -4.085130215 0.5321699977 -5.007649899
thorax  -0.008552360348 0.4624503553 -4.869470119
lowerneck  -3.952120066 -16.37592888 -10.81729984
upperneck  7.656229973 -22.37964249 11.80539989
head  5.484969616 -10.72135067 3.513496399
lclavicle  0 -4.497500157e-015 -2.743230041e-014
lhumerus  -47.3973999 29.85569954 60.6169014
lradius  0.01305832155 -6.507048965e-006 28.72440147
lwrist  4.824992743e-007 -3.790274832e-007 -30.88840103
lhand  -4.452728941e-031 -37.53089905 -10.83979988
lfingers  90 7.125020027 -90
lthumb  95.14906688 -25.64901517 101.7597038
rclavicle  0 -4.497500157e-015 -2.743230041e-014
rhumerus  32.33029938 -43.48789978 -25.17270088
rradius  -5.16745672e-007 2.214343908e-008 37.75379944
rwrist  -2.867388866e-005 0.06988933682 -168.9120026
rhand  -1.77153772e-031 4.707180023 -7.083409786
rfingers  -90 -7.125020027 -90
rthumb  -84.77039111 -8.939190492 -59.50033173
rfemur  -12.27790642 14.06513214 11.53336525
rtibia  -1.624451518 -2.079137802 20.35457802
rfoot  0.4490854442 -22.08234406 -35.85873413
rtoes  3.916225121 19.62824709 -101.5187994
lfemur  -4.531315327 -17.98213959 -23.98145103
ltibia  6.719242096 -0.9554844499 7.680337429
lfoot  0.9113138318 -20.95709229 36.14203644
ltoes  -8.686863001 -18.08494019 -116.2056527
165
root  34.85746609 36.53867226 -14.33547463 9.913908958 -2.743227482 5.251506805
lowerback  -7.466469765 -0.06345761567 -0.4823070168
upperback  -4.076069832 0.5429180264 -5.01225996
thorax  0.01533790026 0.4673919976 -4.883979797
lowerneck  -3.966470003 -16.37761688 -10.81540012
upperneck  7.680659771 -22.37939072 11.80119991
head  5.493227959 -10.72288132 3.512783527
lclavicle  0 -4.497500157e-015 -2.743230041e-014
lhumerus  -47.37969971 29.83480072 60.64920044
lradius  0.01317385957 -6.507048965e-006 28.74379921
lwrist  4.824992743e-007 -3.790274832e-007 -30.84500122
lhand  -4.449890616e-031 -37.48329926 -10.74600029
lfingers  90 7.125020027 -90
lthumb  95.10549571 -25.55902406 101.699648
rclavicle  0 -4.497500157e-015 -2.743230041e-014
rhumerus  31.91810226 -43.21429825 -24.54300117
rradius  -5.16745672e-007 2.214343908e-008 37.53979874
rwrist  -2.867388866e-005 0.06926484406 -169.3690033
rhand  -1.771248852e-031 4.592299938 -7.263929844
rfingers  -90 -7.125020027 -90
rthumb  -84.89014486 -8.776284955 -59.62662234
rfemur  -12.29518127 14.03942394 11.51485634
rtibia  -1.644074321 -2.101532936 20.39241791
rfoot  0.4339104295 -22.11149406 -35.83981323
rtoes  3.923732329 19.62680462 -101.5411487
lfemur  -4.553632736 -17.95734787 -23.99483871
ltibia  6.705695152 -0.9446234107 7.703811646
lfoot  0.9256742597 -21.00421906 36.14319229
ltoes  -8.687314935 -18.08472874 -116.2071085
